<mxfile host="app.diagrams.net" modified="2023-09-11T23:21:02.683Z" agent="Mozilla/5.0 (Windows NT 10.0; Win64; x64) AppleWebKit/537.36 (KHTML, like Gecko) Chrome/116.0.0.0 Safari/537.36" version="21.7.4" etag="pKdQcVKRnEroLpS87sua" type="github">
  <diagram name="Page-1" id="ir2yAKNCnuxKwvi6ArAn">
    <mxGraphModel>
      <root>
        <mxCell id="0" />
        <mxCell id="1" parent="0" />
      </root>
    </mxGraphModel>
  </diagram>
</mxfile>
